<svg id="Layer_1" data-name="Layer 1" xmlns="http://www.w3.org/2000/svg" viewBox="0 0 934.29 719.96"><path d="M723.28,337c-10.13,41.36-19.42,97.06-27,167.12-10.13,88.62-16.88,145.17-21.1,169.65-.85,2.53-.85,5.06-.85,8.44v4.22a10.73,10.73,0,0,0-.84,5.06c0,.85-.85,14.35-1.69,20.26-.84,16-4.22,28.7-9.28,37.14v1.68c0,2.54-.85,3.38-3.38,3.38s-3.38-.84-3.38-3.38c-2.53-24.47-18.57-95.37-19.41-98.75-2.53-17.72-9.28-70.89-18.57-157.83-3.37-31.23-7.59-59.93-11-85.25-4.22,27.86-8.44,59.93-12.66,95.38C584,592.75,577.26,649.3,573,673.78c-.85,2.53-.85,5.06-.85,8.44v4.22a10.73,10.73,0,0,0-.84,5.06c0,.85-.84,14.35-1.69,20.26-.84,16-4.22,28.7-9.28,37.14v1.68c0,2.54-.84,3.38-3.38,3.38s-3.37-.84-3.37-3.38c-2.53-24.47-18.57-95.37-19.42-98.75-2.53-17.72-9.28-70.89-18.57-157.83-7.59-65.83-15.19-118.16-22.78-156.14V337c0-3.37,5.9-5.06,6.75-.84q11.38,58.23,22.79,157c9.28,86.93,16,139.26,18.57,157,.84,9.29,4.22,25.32,10.13,49.8,4.21,14.35,6.75,27,7.59,36.3,2.53-5.91,3.38-14.35,4.22-25.32.84-5.91,1.69-17.73,1.69-20.26a10.77,10.77,0,0,1,.84-5.07v-4.22c0-3.37,0-6.75.85-9.28,4.22-23.63,11-80.18,21.1-168.8,5.06-43.9,10.13-83.56,16-116.48-2.53-18.57-5.9-34.61-8.44-48.95V337c0-3.37,5.91-5.06,6.76-.84,1.68,9.28,3.37,20.25,5.9,31.23a303.44,303.44,0,0,1,6.76-32.08c.84-4.22,7.59-2.53,6.75,1.69-3.38,15.19-7.6,32.07-11,50.64,5.06,29.54,9.28,65,14.35,105.51,9.28,86.93,16,139.26,18.56,157,.85,9.29,4.22,25.32,10.13,49.8,4.22,14.35,6.75,27,7.6,36.3,2.53-5.91,3.37-14.35,4.22-25.32.84-5.91,1.69-17.73,1.69-20.26a10.77,10.77,0,0,1,.84-5.07v-4.22c0-3.37,0-6.75.84-9.28,4.22-23.63,11-80.18,21.11-168.8,7.59-70.06,16.88-126.61,27-168C717.37,331.1,724.12,332.79,723.28,337Z" transform="translate(-492.86 -180.02)"/><path d="M760.41,729.48C745.22,706.69,741,676.31,741,639.17c0-21.1.84-44.73,3.37-70,3.38-41.36,27.85-62.46,56.55-62.46,3.38,0,7.6,0,11,.84,26.17,3.38,49.8,22,57.4,49v-2.53c.84-96.22-3.38-157-12.66-183.16-6.75-19.41-24.48-29.54-43.89-29.54a59.41,59.41,0,0,0-43.89,20.26c-9.28,11-14.35,32.91-14.35,65.83,0,2.54-.84,3.38-3.38,3.38s-3.37-.84-3.37-3.38c0-65.83,23.63-92,62.46-92,27,0,44.73,10.13,53.17,33.76,11,29.55,13.5,92.85,13.5,158.68,0,40.51-.84,81.87-1.68,116.48a154.85,154.85,0,0,0-.85,19.41c-1.69,46.42-2.53,75.12-2.53,87.78,0,2.53-.84,3.37-3.38,3.37s-3.37-.84-3.37-3.37c0-11,0-28.7.84-52.33-13.5,35.45-43,55.7-65.83,55.7C783.2,754.8,770.54,745.52,760.41,729.48Zm67.52,8.44c21.1-14.35,37.14-42.2,37.14-68.36a6.34,6.34,0,0,1,1.69-3.38l2.53-83.56c-2.53,0-3.38-.84-3.38-3.37,0-38-30.38-65.84-63.3-65.84-27,0-48.11,18.57-51.49,55.71-2.53,25.32-3.37,49-3.37,69.21,0,37.13,4.22,66.68,17.72,87.78,10.13,15.19,21.95,21.94,34.61,21.94C808.52,748.05,818.65,744.68,827.93,737.92Z" transform="translate(-492.86 -180.02)"/><path d="M942.71,889c-14.35-10.13-21.1-35.46-27-59.93v-.85c0-3.37,5.91-5.06,6.75-.84,4.22,24.48,12.66,47.27,23.63,56.55,8.44,6.75,19.41,9.28,30.39,9.28,26.16,0,53.17-17.72,58.24-43,4.21-20.26,5.06-50.64,5.06-70.06-.85-8.44-.85-21.94-1.69-35.44,0-4.22-.84-8.44-.84-12.67,0-1.68,0-4.21-.85-5.9,0-8.44-.84-15.19-.84-20.26-10.13,29.54-31.23,46.42-54,46.42-28.7,0-57.39-25.32-64.15-68.36a143,143,0,0,1-2.53-27.86c0-10.12,0-21.1.85-33.76s.84-21.1.84-27c0-9.28.84-54,3.38-134.2.84-20.25.84-38.82.84-55.7q0-46.85-2.53-78.5c0-2.53.84-3.37,3.38-3.37s3.37.84,3.37,3.37q2.53,31.65,2.53,78.5c0,16.88,0,35.45-.84,55.7-2.53,80.19-3.38,124.92-3.38,134.2,0,5.91,0,15.2-.84,27.86s-.84,23.63-.84,32.91a125,125,0,0,0,2.53,26.17c6.75,41.35,31.23,63.3,56.55,63.3,23.63,0,45.57-19.41,53.17-58.24a1.83,1.83,0,0,1,1.69-1.69V324.35c0-2.53.84-3.38,3.37-3.38s3.38.85,3.38,3.38V689c0,11,.85,27,2.53,49.8v2.53c.85,16.88,1.69,32.92,1.69,48.11,0,23.63-1.69,43.89-5.06,62.46-5.07,28.69-35.45,48.11-65,48.11A55.68,55.68,0,0,1,942.71,889Z" transform="translate(-492.86 -180.02)"/><path d="M1086.18,740.46c-2.53-24.48-3.38-73.44-3.38-146.87,0-36.29,0-79.33.85-128.29.84-49.79,4.22-156.14,4.22-165.43.84-24.47,2.53-43,4.22-56.55.84-7.59,1.69-14.34,2.53-18.56a33.91,33.91,0,0,1,3.37-10.13c11.82-18.57,34.61-28.7,55.71-28.7a56.81,56.81,0,0,1,20.26,3.38c22.79,6.75,38,23.63,38,45.57,0,6.76-1.69,13.51-4.22,21.1-2.53,4.23-7.6,1.69-6.75-1.68a51.1,51.1,0,0,0,3.37-18.57c0-19.42-13.5-33.76-32.07-39.67a65.78,65.78,0,0,0-18.57-2.53c-19.41,0-39.67,8.44-50.64,24.47-.84.85-.84,1.69-.84,4.22v1.69a3.09,3.09,0,0,0-.85,2.53c-.84,4.22-1.69,9.29-2.53,16.88-1.69,14.35-3.38,32.92-4.22,56.55,0,9.29,0,19.42-.84,29.54a96.68,96.68,0,0,0,31.22,5.07c6.76,0,12.66-.84,19.42-1.69,4.22,0,7.59-.84,11.81-.84,9.29-.85,16.88-.85,22-.85,2.53,0,3.37.85,3.37,3.38s-.84,3.38-3.37,3.38c-5.07,0-12.66,0-22,.84-4.22,0-7.59.84-11.81.84-6.76.85-12.66,1.69-19.42,1.69a96.94,96.94,0,0,1-31.22-5.06c-1.69,37.14-2.54,80.18-3.38,129.13s-.85,91.16-.85,128.29c0,72.59.85,122.39,3.38,146.87,0,2.53-.84,3.37-3.38,3.37S1086.18,743,1086.18,740.46Z" transform="translate(-492.86 -180.02)"/><path d="M1210.25,729.48c-15.2-22.79-19.42-53.17-19.42-90.31,0-21.1.85-44.73,3.38-70,3.38-41.36,27.85-62.46,56.55-62.46,3.38,0,7.6,0,11,.84,26.17,3.38,49.8,22,57.4,49v-2.53c.84-96.22-3.38-157-12.67-183.16-6.75-19.41-24.47-29.54-43.88-29.54a59.39,59.39,0,0,0-43.89,20.26c-9.29,11-14.35,32.91-14.35,65.83,0,2.54-.85,3.38-3.38,3.38s-3.37-.84-3.37-3.38c0-65.83,23.63-92,62.45-92,27,0,44.74,10.13,53.18,33.76,11,29.55,13.5,92.85,13.5,158.68,0,40.51-.84,81.87-1.69,116.48a156.68,156.68,0,0,0-.84,19.41c-1.69,46.42-2.53,75.12-2.53,87.78,0,2.53-.85,3.37-3.38,3.37s-3.37-.84-3.37-3.37c0-11,0-28.7.84-52.33-13.5,35.45-43,55.7-65.83,55.7C1233,754.8,1220.38,745.52,1210.25,729.48Zm67.52,8.44c21.1-14.35,37.14-42.2,37.14-68.36a6.39,6.39,0,0,1,1.68-3.38l2.54-83.56c-2.54,0-3.38-.84-3.38-3.37,0-38-30.38-65.84-63.3-65.84-27,0-48.11,18.57-51.49,55.71-2.53,25.32-3.37,49-3.37,69.21,0,37.13,4.22,66.68,17.72,87.78,10.13,15.19,22,21.94,34.61,21.94C1258.36,748.05,1268.48,744.68,1277.77,737.92Z" transform="translate(-492.86 -180.02)"/><path d="M1369.75,751.43V682.22c-.84-34.61-.84-74.28-.84-119.85V518.48c-.84-16-.84-33.76-.84-51.49q-2.53-188.64-2.53-283.59c0-2.53.84-3.38,3.37-3.38s3.38.85,3.38,3.38q0,94.95,2.53,283.59c0,17.73,0,35.45.84,51.49v43.89c0,45.57,0,85.24.85,119.85v69.21c0,2.53-.85,3.37-3.38,3.37S1369.75,754,1369.75,751.43Z" transform="translate(-492.86 -180.02)"/><path d="M1420.39,751.43V682.22c-.84-34.61-.84-74.28-.84-119.85V518.48c-.85-16-.85-33.76-.85-51.49q-2.54-188.64-2.53-283.59c0-2.53.84-3.38,3.38-3.38s3.37.85,3.37,3.38q0,94.95,2.53,283.59c0,17.73,0,35.45.85,51.49v43.89c0,45.57,0,85.24.84,119.85v69.21c0,2.53-.84,3.37-3.37,3.37S1420.39,754,1420.39,751.43Z" transform="translate(-492.86 -180.02)"/></svg>